<svg xmlns="http://www.w3.org/2000/svg" xmlns:xlink="http://www.w3.org/1999/xlink" width="198.158" height="46.898" viewBox="0 0 198.158 46.898">
  <defs>
    <linearGradient id="linear-gradient" x1="0.5" y1="1" x2="0.5" gradientUnits="objectBoundingBox">
      <stop offset="0" stop-color="#fda066"/>
      <stop offset="0.995" stop-color="#fd4f42"/>
    </linearGradient>
    <linearGradient id="linear-gradient-2" x1="1.025" y1="1.025" x2="0.318" y2="0.308" gradientUnits="objectBoundingBox">
      <stop offset="0" stop-color="#1d1d1b"/>
      <stop offset="0.995" stop-color="#f5f5f5" stop-opacity="0"/>
    </linearGradient>
    <linearGradient id="linear-gradient-3" x1="1859.852" y1="-101.511" x2="1859.113" y2="-102.269" gradientUnits="objectBoundingBox">
      <stop offset="0" stop-color="#1d1d1b"/>
      <stop offset="0.408" stop-color="#333331" stop-opacity="0.894"/>
      <stop offset="0.72" stop-color="#7b7b7a" stop-opacity="0.561"/>
      <stop offset="1" stop-color="#f5f5f5" stop-opacity="0"/>
    </linearGradient>
  </defs>
  <g id="Web_App_Icon" data-name="Web App Icon" transform="translate(15)">
    <g id="Group_5" data-name="Group 5" transform="translate(97.771)">
      <g id="Group_4" data-name="Group 4">
        <path id="Path_4" data-name="Path 4" d="M494.393,367.053H424.957a7.986,7.986,0,0,1-7.976-7.979V335.637a7.977,7.977,0,0,1,13.616-5.642L449.8,349.2a2.706,2.706,0,0,0,3.733,0l2.363-2.365-13.066-13.068a7.974,7.974,0,0,1,5.64-13.614h22.4a7.974,7.974,0,0,1,5.638,13.614l-13.066,13.068,2.365,2.365a2.647,2.647,0,0,0,3.733,0l19.2-19.207a7.977,7.977,0,0,1,13.616,5.642v23.438A7.987,7.987,0,0,1,494.393,367.053ZM425,332.989a2.884,2.884,0,0,0-1.058.207,2.6,2.6,0,0,0-1.63,2.44v23.438a2.645,2.645,0,0,0,2.641,2.641h69.436a2.644,2.644,0,0,0,2.639-2.641V335.637a2.64,2.64,0,0,0-4.507-1.868l-19.2,19.207a7.977,7.977,0,0,1-11.281,0l-2.365-2.365-2.365,2.365a7.984,7.984,0,0,1-11.279,0l-19.207-19.207A2.506,2.506,0,0,0,425,332.989Zm23.47-7.5a2.64,2.64,0,0,0-1.868,4.5l13.068,13.068,13.068-13.068a2.639,2.639,0,0,0-1.866-4.5Z" transform="translate(-416.981 -320.155)" fill="url(#linear-gradient)"/>
      </g>
      <path id="Path_5" data-name="Path 5" d="M443.232,334.667l-3.773,3.773-6.517-6.517,3.928-3.618Z" transform="translate(-400.539 -311.759)" opacity="0.5" fill="url(#linear-gradient-2)" style="mix-blend-mode: multiply;isolation: isolate"/>
      <path id="Path_6" data-name="Path 6" d="M438.011,337.071l3.773-3.773,2.318,2.318-3.928,3.618Z" transform="translate(-395.317 -306.616)" opacity="0.5" fill="url(#linear-gradient-3)" style="mix-blend-mode: multiply;isolation: isolate"/>
    </g>
    <g id="Group_6" data-name="Group 6" transform="translate(-15)">
      <path id="Path_7" data-name="Path 7" d="M401.424,343.441a3,3,0,1,0,2.14.877A2.922,2.922,0,0,0,401.424,343.441Z" transform="translate(-318.057 -303.959)" fill="#061d70"/>
      <path id="Path_8" data-name="Path 8" d="M395.052,344.319a3.021,3.021,0,1,0,4.281,0A3.055,3.055,0,0,0,395.052,344.319Z" transform="translate(-320.999 -303.958)" fill="#061d70"/>
      <path id="Path_9" data-name="Path 9" d="M406.991,354.841a2.118,2.118,0,0,0,2.118-2.116V322.277a2.118,2.118,0,0,0-4.235,0v30.448A2.118,2.118,0,0,0,406.991,354.841Z" transform="translate(-313.559 -320.152)" fill="#061d70"/>
      <path id="Path_10" data-name="Path 10" d="M410.838,346.52H407.68v-.22a2.879,2.879,0,0,1,.366-1.55,1.432,1.432,0,0,1,1.289-.475,3.329,3.329,0,0,1,.729.105,3.7,3.7,0,0,1,1.024.436l.5.288.378-1.111a1.858,1.858,0,0,0-1.1-2.328,4.961,4.961,0,0,0-5.075.915,5.714,5.714,0,0,0-1.094,3.9v.2l-.115.022a1.43,1.43,0,0,0,.249,2.838h6.009a1.515,1.515,0,1,0,0-3.03Z" transform="translate(-314.583 -305.42)" fill="#061d70"/>
      <path id="Path_11" data-name="Path 11" d="M431.308,351.1V339.482a2.112,2.112,0,0,0-4.224,0v11.145H411.35c-2.36,0-3.457-1.375-3.457-4.325v-6.819a2.113,2.113,0,0,0-4.225,0V346.3c0,2.95-1.1,4.325-3.459,4.325s-3.455-1.375-3.455-4.325v-4.941a2.128,2.128,0,0,0-4.256,0V346.3c0,2.95-1.1,4.325-3.457,4.325-2.279,0-3.377-1.248-3.457-3.907v-5.36a2.113,2.113,0,1,0-4.225,0V346.3c0,2.95-1.1,4.325-3.457,4.325H363.882V322.268a2.112,2.112,0,1,0-4.224,0V351.1a3.753,3.753,0,0,0,3.751,3.749H377.9a7.1,7.1,0,0,0,5.543-2.141,8.345,8.345,0,0,0,11.163,0,7.181,7.181,0,0,0,5.6,2.141,7.1,7.1,0,0,0,5.544-2.141,7.241,7.241,0,0,0,5.6,2.141h16.2A3.758,3.758,0,0,0,431.308,351.1Z" transform="translate(-345.007 -320.155)" fill="#061d70"/>
      <path id="Path_12" data-name="Path 12" d="M358.469,330.306a2.1,2.1,0,0,0-2.1,2.1v16.984a15.769,15.769,0,0,1-.2,2.664,4.835,4.835,0,0,1-.716,1.887,3.412,3.412,0,0,1-1.438,1.184,5.956,5.956,0,0,1-1.345.42,2.1,2.1,0,0,0-.887,3.674,2.134,2.134,0,0,0,1.358.485,2.194,2.194,0,0,0,.419-.039,10.349,10.349,0,0,0,2.147-.649,7.372,7.372,0,0,0,2.855-2.142,8.325,8.325,0,0,0,1.556-3.252,17.819,17.819,0,0,0,.456-4.232V332.408A2.1,2.1,0,0,0,358.469,330.306Z" transform="translate(-351.017 -313.095)" fill="#061d70"/>
    </g>
  </g>
</svg>
